<mxfile host="Electron" agent="Mozilla/5.0 (X11; Linux x86_64) AppleWebKit/537.36 (KHTML, like Gecko) draw.io/24.7.5 Chrome/126.0.6478.183 Electron/31.3.0 Safari/537.36" version="24.7.5">
  <diagram name="Page-1" id="lcoXLcqIo6e9TU4etfuI">
    <mxGraphModel dx="3004" dy="1380" grid="1" gridSize="10" guides="1" tooltips="1" connect="1" arrows="1" fold="1" page="1" pageScale="1" pageWidth="850" pageHeight="1100" math="0" shadow="0">
      <root>
        <mxCell id="0" />
        <mxCell id="1" parent="0" />
        <mxCell id="Fw-aWdMfHV5dJzxvCZXy-9" style="edgeStyle=orthogonalEdgeStyle;rounded=0;orthogonalLoop=1;jettySize=auto;html=1;" edge="1" parent="1" source="Fw-aWdMfHV5dJzxvCZXy-1" target="Fw-aWdMfHV5dJzxvCZXy-2">
          <mxGeometry relative="1" as="geometry">
            <Array as="points">
              <mxPoint x="740" y="295" />
              <mxPoint x="740" y="430" />
            </Array>
          </mxGeometry>
        </mxCell>
        <UserObject label="&lt;b style=&quot;font-weight:normal;&quot; id=&quot;docs-internal-guid-b76e16a1-7fff-9e69-81b5-06a896a6bba8&quot;&gt;&lt;span style=&quot;font-size:12pt;font-family:&#39;Times New Roman&#39;,serif;color:#000000;background-color:transparent;font-weight:400;font-style:normal;font-variant:normal;text-decoration:none;vertical-align:baseline;white-space:pre;white-space:pre-wrap;&quot;&gt;&lt;span style=&quot;border:none;display:inline-block;overflow:hidden;width:286px;height:161px;&quot;&gt;&lt;img src=&quot;https://lh7-rt.googleusercontent.com/docsz/AD_4nXfK0VYgZDWmbNdXtOCQlRUQSc48NEmfTHc4hndtIJRgrOaEDdZhkQQD3ZPdJTKz8rLiYBc6x3otPXpUF-zXGNxUrz6tjm7_84X3pnodJudvxjkF6Jw-yf3uw87_ubkmHSs6SN5m?key=EltDjJ6_xlSCGTeuLNktxmrT&quot; width=&quot;286&quot; height=&quot;161&quot; style=&quot;margin-left:0px;margin-top:0px;&quot;&gt;&lt;/span&gt;&lt;/span&gt;&lt;/b&gt;" link="&lt;b style=&quot;font-weight:normal;&quot; id=&quot;docs-internal-guid-b76e16a1-7fff-9e69-81b5-06a896a6bba8&quot;&gt;&lt;span style=&quot;font-size:12pt;font-family:&#39;Times New Roman&#39;,serif;color:#000000;background-color:transparent;font-weight:400;font-style:normal;font-variant:normal;text-decoration:none;vertical-align:baseline;white-space:pre;white-space:pre-wrap;&quot;&gt;&lt;span style=&quot;border:none;display:inline-block;overflow:hidden;width:286px;height:161px;&quot;&gt;&lt;img src=&quot;https://lh7-rt.googleusercontent.com/docsz/AD_4nXfK0VYgZDWmbNdXtOCQlRUQSc48NEmfTHc4hndtIJRgrOaEDdZhkQQD3ZPdJTKz8rLiYBc6x3otPXpUF-zXGNxUrz6tjm7_84X3pnodJudvxjkF6Jw-yf3uw87_ubkmHSs6SN5m?key=EltDjJ6_xlSCGTeuLNktxmrT&quot; width=&quot;286&quot; height=&quot;161&quot; style=&quot;margin-left:0px;margin-top:0px;&quot;&gt;&lt;/span&gt;&lt;/span&gt;&lt;/b&gt;" id="Fw-aWdMfHV5dJzxvCZXy-1">
          <mxCell style="text;whiteSpace=wrap;html=1;" vertex="1" parent="1">
            <mxGeometry x="360" y="200" width="320" height="190" as="geometry" />
          </mxCell>
        </UserObject>
        <mxCell id="Fw-aWdMfHV5dJzxvCZXy-2" value="&lt;font style=&quot;font-size: 36px;&quot;&gt;Django&amp;nbsp;&lt;/font&gt;&lt;div&gt;&lt;font style=&quot;font-size: 36px;&quot;&gt;Server&lt;/font&gt;&lt;/div&gt;" style="rounded=1;whiteSpace=wrap;html=1;" vertex="1" parent="1">
          <mxGeometry x="980" y="380" width="250" height="100" as="geometry" />
        </mxCell>
        <mxCell id="Fw-aWdMfHV5dJzxvCZXy-10" style="edgeStyle=orthogonalEdgeStyle;rounded=0;orthogonalLoop=1;jettySize=auto;html=1;" edge="1" parent="1">
          <mxGeometry relative="1" as="geometry">
            <mxPoint x="621" y="570" as="sourcePoint" />
            <mxPoint x="981" y="430" as="targetPoint" />
            <Array as="points">
              <mxPoint x="741" y="570" />
              <mxPoint x="741" y="430" />
            </Array>
          </mxGeometry>
        </mxCell>
        <mxCell id="Fw-aWdMfHV5dJzxvCZXy-14" value="&lt;font style=&quot;font-size: 21px;&quot;&gt;Komunikasi Via&amp;nbsp;&lt;/font&gt;&lt;div style=&quot;font-size: 21px;&quot;&gt;&lt;font style=&quot;font-size: 21px;&quot;&gt;websocket&lt;/font&gt;&lt;/div&gt;" style="edgeLabel;html=1;align=center;verticalAlign=middle;resizable=0;points=[];" vertex="1" connectable="0" parent="Fw-aWdMfHV5dJzxvCZXy-10">
          <mxGeometry x="0.6371" y="-3" relative="1" as="geometry">
            <mxPoint x="-30" as="offset" />
          </mxGeometry>
        </mxCell>
        <mxCell id="Fw-aWdMfHV5dJzxvCZXy-20" value="Text" style="edgeLabel;html=1;align=center;verticalAlign=middle;resizable=0;points=[];" vertex="1" connectable="0" parent="Fw-aWdMfHV5dJzxvCZXy-10">
          <mxGeometry x="0.5512" y="-10" relative="1" as="geometry">
            <mxPoint as="offset" />
          </mxGeometry>
        </mxCell>
        <UserObject label="&lt;b style=&quot;font-weight:normal;&quot; id=&quot;docs-internal-guid-4325f096-7fff-130a-5473-ac0e0bd8b4d2&quot;&gt;&lt;span style=&quot;font-size:12pt;font-family:&#39;Times New Roman&#39;,serif;color:#000000;background-color:transparent;font-weight:400;font-style:normal;font-variant:normal;text-decoration:none;vertical-align:baseline;white-space:pre;white-space:pre-wrap;&quot;&gt;&lt;span style=&quot;border:none;display:inline-block;overflow:hidden;width:194px;height:194px;&quot;&gt;&lt;img src=&quot;https://lh7-rt.googleusercontent.com/docsz/AD_4nXcy3g69FRNhZVtDGl3Nzh_AUH-hvH8SfStjG-pnfJwAkl6zSLSM1z8zEY5xdjPqjgMdoB7I6bEzBMWfrmAshHXjoZ7-AUSYsFW6_tZ2ewDQbNzCgLh8b-WFrQNoi97AB8RjSpm3LA?key=EltDjJ6_xlSCGTeuLNktxmrT&quot; width=&quot;194&quot; height=&quot;194&quot; style=&quot;margin-left:0px;margin-top:0px;&quot;&gt;&lt;/span&gt;&lt;/span&gt;&lt;/b&gt;" link="&lt;b style=&quot;font-weight:normal;&quot; id=&quot;docs-internal-guid-4325f096-7fff-130a-5473-ac0e0bd8b4d2&quot;&gt;&lt;span style=&quot;font-size:12pt;font-family:&#39;Times New Roman&#39;,serif;color:#000000;background-color:transparent;font-weight:400;font-style:normal;font-variant:normal;text-decoration:none;vertical-align:baseline;white-space:pre;white-space:pre-wrap;&quot;&gt;&lt;span style=&quot;border:none;display:inline-block;overflow:hidden;width:194px;height:194px;&quot;&gt;&lt;img src=&quot;https://lh7-rt.googleusercontent.com/docsz/AD_4nXcy3g69FRNhZVtDGl3Nzh_AUH-hvH8SfStjG-pnfJwAkl6zSLSM1z8zEY5xdjPqjgMdoB7I6bEzBMWfrmAshHXjoZ7-AUSYsFW6_tZ2ewDQbNzCgLh8b-WFrQNoi97AB8RjSpm3LA?key=EltDjJ6_xlSCGTeuLNktxmrT&quot; width=&quot;194&quot; height=&quot;194&quot; style=&quot;margin-left:0px;margin-top:0px;&quot;&gt;&lt;/span&gt;&lt;/span&gt;&lt;/b&gt;" id="Fw-aWdMfHV5dJzxvCZXy-3">
          <mxCell style="text;whiteSpace=wrap;html=1;" vertex="1" parent="1">
            <mxGeometry x="390" y="460" width="230" height="220" as="geometry" />
          </mxCell>
        </UserObject>
        <mxCell id="Fw-aWdMfHV5dJzxvCZXy-7" style="edgeStyle=orthogonalEdgeStyle;rounded=0;orthogonalLoop=1;jettySize=auto;html=1;" edge="1" parent="1" source="Fw-aWdMfHV5dJzxvCZXy-4" target="Fw-aWdMfHV5dJzxvCZXy-1">
          <mxGeometry relative="1" as="geometry" />
        </mxCell>
        <UserObject label="&lt;b style=&quot;font-weight:normal;&quot; id=&quot;docs-internal-guid-f406d5cf-7fff-410d-c826-ce9ab4e5fd6c&quot;&gt;&lt;span style=&quot;font-size:12pt;font-family:&#39;Times New Roman&#39;,serif;color:#000000;background-color:transparent;font-weight:400;font-style:normal;font-variant:normal;text-decoration:none;vertical-align:baseline;white-space:pre;white-space:pre-wrap;&quot;&gt;&lt;span style=&quot;border:none;display:inline-block;overflow:hidden;width:225px;height:225px;&quot;&gt;&lt;img src=&quot;https://lh7-rt.googleusercontent.com/docsz/AD_4nXf5_ZLPFa0NrWNx1Y5C16050qA7rUpwkdfVuZil2BnvXTp6zruhnmqls9Vt24Zg_HCUrGOsDYp5nHfzwQVYY5NiMMfTYpClSb4tTsh9Iuw6ObUY-KvflyKQ_HBfBkTsauZvFXnpxw?key=EltDjJ6_xlSCGTeuLNktxmrT&quot; width=&quot;225&quot; height=&quot;225&quot; style=&quot;margin-left:0px;margin-top:0px;&quot;&gt;&lt;/span&gt;&lt;/span&gt;&lt;/b&gt;" link="&lt;b style=&quot;font-weight:normal;&quot; id=&quot;docs-internal-guid-f406d5cf-7fff-410d-c826-ce9ab4e5fd6c&quot;&gt;&lt;span style=&quot;font-size:12pt;font-family:&#39;Times New Roman&#39;,serif;color:#000000;background-color:transparent;font-weight:400;font-style:normal;font-variant:normal;text-decoration:none;vertical-align:baseline;white-space:pre;white-space:pre-wrap;&quot;&gt;&lt;span style=&quot;border:none;display:inline-block;overflow:hidden;width:225px;height:225px;&quot;&gt;&lt;img src=&quot;https://lh7-rt.googleusercontent.com/docsz/AD_4nXf5_ZLPFa0NrWNx1Y5C16050qA7rUpwkdfVuZil2BnvXTp6zruhnmqls9Vt24Zg_HCUrGOsDYp5nHfzwQVYY5NiMMfTYpClSb4tTsh9Iuw6ObUY-KvflyKQ_HBfBkTsauZvFXnpxw?key=EltDjJ6_xlSCGTeuLNktxmrT&quot; width=&quot;225&quot; height=&quot;225&quot; style=&quot;margin-left:0px;margin-top:0px;&quot;&gt;&lt;/span&gt;&lt;/span&gt;&lt;/b&gt;" id="Fw-aWdMfHV5dJzxvCZXy-4">
          <mxCell style="text;whiteSpace=wrap;html=1;" vertex="1" parent="1">
            <mxGeometry y="30" width="260" height="250" as="geometry" />
          </mxCell>
        </UserObject>
        <mxCell id="Fw-aWdMfHV5dJzxvCZXy-8" style="edgeStyle=orthogonalEdgeStyle;rounded=0;orthogonalLoop=1;jettySize=auto;html=1;" edge="1" parent="1" source="Fw-aWdMfHV5dJzxvCZXy-5" target="Fw-aWdMfHV5dJzxvCZXy-3">
          <mxGeometry relative="1" as="geometry" />
        </mxCell>
        <UserObject label="&lt;b style=&quot;font-weight:normal;&quot; id=&quot;docs-internal-guid-7344abbe-7fff-7951-c832-2460ed7ff853&quot;&gt;&lt;span style=&quot;font-size:12pt;font-family:&#39;Times New Roman&#39;,serif;color:#000000;background-color:transparent;font-weight:400;font-style:normal;font-variant:normal;text-decoration:none;vertical-align:baseline;white-space:pre;white-space:pre-wrap;&quot;&gt;&lt;span style=&quot;border:none;display:inline-block;overflow:hidden;width:225px;height:225px;&quot;&gt;&lt;img src=&quot;https://lh7-rt.googleusercontent.com/docsz/AD_4nXfOhbKh5OFxqQ6ODQOKgMnqqJY15bc9biqnCxUOvOMVaHrXsYpe5PnPZ7BKEoek-adZE13QCdMKuOgmUZ59GZtlAs3wEU07VNQUIEgNPLbEDaYy7RXiiDEkeInZyn2Txa5Nuhgb_w?key=EltDjJ6_xlSCGTeuLNktxmrT&quot; width=&quot;225&quot; height=&quot;225&quot; style=&quot;margin-left:0px;margin-top:0px;&quot;&gt;&lt;/span&gt;&lt;/span&gt;&lt;/b&gt;" link="&lt;b style=&quot;font-weight:normal;&quot; id=&quot;docs-internal-guid-7344abbe-7fff-7951-c832-2460ed7ff853&quot;&gt;&lt;span style=&quot;font-size:12pt;font-family:&#39;Times New Roman&#39;,serif;color:#000000;background-color:transparent;font-weight:400;font-style:normal;font-variant:normal;text-decoration:none;vertical-align:baseline;white-space:pre;white-space:pre-wrap;&quot;&gt;&lt;span style=&quot;border:none;display:inline-block;overflow:hidden;width:225px;height:225px;&quot;&gt;&lt;img src=&quot;https://lh7-rt.googleusercontent.com/docsz/AD_4nXfOhbKh5OFxqQ6ODQOKgMnqqJY15bc9biqnCxUOvOMVaHrXsYpe5PnPZ7BKEoek-adZE13QCdMKuOgmUZ59GZtlAs3wEU07VNQUIEgNPLbEDaYy7RXiiDEkeInZyn2Txa5Nuhgb_w?key=EltDjJ6_xlSCGTeuLNktxmrT&quot; width=&quot;225&quot; height=&quot;225&quot; style=&quot;margin-left:0px;margin-top:0px;&quot;&gt;&lt;/span&gt;&lt;/span&gt;&lt;/b&gt;" id="Fw-aWdMfHV5dJzxvCZXy-5">
          <mxCell style="text;whiteSpace=wrap;html=1;" vertex="1" parent="1">
            <mxGeometry x="20" y="600" width="260" height="250" as="geometry" />
          </mxCell>
        </UserObject>
        <mxCell id="Fw-aWdMfHV5dJzxvCZXy-16" style="edgeStyle=orthogonalEdgeStyle;rounded=0;orthogonalLoop=1;jettySize=auto;html=1;startArrow=classic;startFill=1;" edge="1" parent="1" source="Fw-aWdMfHV5dJzxvCZXy-11" target="Fw-aWdMfHV5dJzxvCZXy-2">
          <mxGeometry relative="1" as="geometry" />
        </mxCell>
        <mxCell id="Fw-aWdMfHV5dJzxvCZXy-17" value="&lt;span style=&quot;color: rgba(0, 0, 0, 0); font-family: monospace; font-size: 0px; text-align: start; background-color: rgb(251, 251, 251);&quot;&gt;%3CmxGraphModel%3E%3Croot%3E%3CmxCell%20id%3D%220%22%2F%3E%3CmxCell%20id%3D%221%22%20parent%3D%220%22%2F%3E%3CmxCell%20id%3D%222%22%20value%3D%22%26lt%3Bfont%20style%3D%26quot%3Bfont-size%3A%2021px%3B%26quot%3B%26gt%3BKomunikasi%20Via%26amp%3Bnbsp%3B%26lt%3B%2Ffont%26gt%3B%26lt%3Bdiv%20style%3D%26quot%3Bfont-size%3A%2021px%3B%26quot%3B%26gt%3B%26lt%3Bfont%20style%3D%26quot%3Bfont-size%3A%2021px%3B%26quot%3B%26gt%3Bwebsocker%26lt%3B%2Ffont%26gt%3B%26lt%3B%2Fdiv%26gt%3B%22%20style%3D%22edgeLabel%3Bhtml%3D1%3Balign%3Dcenter%3BverticalAlign%3Dmiddle%3Bresizable%3D0%3Bpoints%3D%5B%5D%3B%22%20vertex%3D%221%22%20connectable%3D%220%22%20parent%3D%221%22%3E%3CmxGeometry%20x%3D%22860%22%20y%3D%22433%22%20as%3D%22geometry%22%2F%3E%3C%2FmxCell%3E%3C%2Froot%3E%3C%2FmxGraphModel%3E&lt;/span&gt;" style="edgeLabel;html=1;align=center;verticalAlign=middle;resizable=0;points=[];" vertex="1" connectable="0" parent="Fw-aWdMfHV5dJzxvCZXy-16">
          <mxGeometry x="0.0453" y="-2" relative="1" as="geometry">
            <mxPoint as="offset" />
          </mxGeometry>
        </mxCell>
        <mxCell id="Fw-aWdMfHV5dJzxvCZXy-19" value="&lt;font style=&quot;font-size: 21px;&quot;&gt;Komukasi Via&amp;nbsp;&lt;/font&gt;&lt;div style=&quot;font-size: 21px;&quot;&gt;&lt;font style=&quot;font-size: 21px;&quot;&gt;websocket&lt;/font&gt;&lt;/div&gt;" style="edgeLabel;html=1;align=center;verticalAlign=middle;resizable=0;points=[];" vertex="1" connectable="0" parent="Fw-aWdMfHV5dJzxvCZXy-16">
          <mxGeometry x="0.0293" y="-1" relative="1" as="geometry">
            <mxPoint x="1" as="offset" />
          </mxGeometry>
        </mxCell>
        <mxCell id="Fw-aWdMfHV5dJzxvCZXy-11" value="&lt;font style=&quot;font-size: 36px;&quot;&gt;Browser&lt;/font&gt;&lt;div&gt;&lt;font style=&quot;font-size: 36px;&quot;&gt;Client&lt;/font&gt;&lt;/div&gt;" style="rounded=1;whiteSpace=wrap;html=1;" vertex="1" parent="1">
          <mxGeometry x="1430" y="380" width="250" height="100" as="geometry" />
        </mxCell>
      </root>
    </mxGraphModel>
  </diagram>
</mxfile>
